<?xml version="1.0" standalone="no"?><svg xmlns="http://www.w3.org/2000/svg" viewBox="0 0 1440 320"><path fill="#f3f4f5" fill-opacity="1" d="M0,288L34.3,256C68.6,224,137,160,206,165.3C274.3,171,343,245,411,245.3C480,245,549,171,617,160C685.7,149,754,203,823,224C891.4,245,960,235,1029,202.7C1097.1,171,1166,117,1234,128C1302.9,139,1371,213,1406,250.7L1440,288L1440,0L1405.7,0C1371.4,0,1303,0,1234,0C1165.7,0,1097,0,1029,0C960,0,891,0,823,0C754.3,0,686,0,617,0C548.6,0,480,0,411,0C342.9,0,274,0,206,0C137.1,0,69,0,34,0L0,0Z"></path></svg>